<?xml version="1.0" encoding="utf-8"?>
<!-- Generator: Adobe Illustrator 17.1.0, SVG Export Plug-In . SVG Version: 6.00 Build 0)  -->
<!DOCTYPE svg PUBLIC "-//W3C//DTD SVG 1.1//EN" "http://www.w3.org/Graphics/SVG/1.1/DTD/svg11.dtd">
<svg version="1.1" id="Layer_1" xmlns="http://www.w3.org/2000/svg" xmlns:xlink="http://www.w3.org/1999/xlink" x="0px" y="0px"
	 viewBox="0 0 261.6 293" enable-background="new 0 0 261.6 293" xml:space="preserve">
<path fill="#393939" d="M17.8,96.9c9.8,0,17.8,8,17.8,17.8V186c0,9.8-8,17.8-17.8,17.8C8,203.9,0,195.9,0,186v-71.3
	C0,104.8,8,96.9,17.8,96.9z M243.7,96.9c9.8,0,17.8,8,17.8,17.8V186c0,9.8-8,17.8-17.8,17.8s-17.8-8-17.8-17.8v-71.3
	C225.9,104.8,233.9,96.9,243.7,96.9z M47.6,96.9H214v124.8c0,9.8-8,17.8-17.8,17.8h-17.8v35.7c0,9.8-8,17.8-17.8,17.8
	c-9.8,0-17.8-8-17.8-17.8v-35.7h-23.8v35.7c0,9.8-8,17.8-17.8,17.8c-9.8,0-17.8-8-17.8-17.8l0-35.7H65.4c-9.8,0-17.8-8-17.8-17.8
	V96.9z M68.4,1.7c2.3-2.3,6.1-2.3,8.4,0l19.5,19.5c11.1-4.9,23-7.6,34.5-7.6c11.6,0,23.7,2.8,34.8,7.7l19.6-19.6
	c2.3-2.3,6.1-2.3,8.4,0c2.3,2.3,2.3,6.1,0,8.4l-17,17C198,40.1,214,61.2,214,85H47.6c0-23.9,16.1-45.1,37.6-58L68.4,10.1
	C66,7.8,66,4.1,68.4,1.7z M101.1,43.4c-6.6,0-11.9,5.3-11.9,11.9c0,6.6,5.3,11.9,11.9,11.9c6.6,0,11.9-5.3,11.9-11.9
	C112.9,48.7,107.6,43.4,101.1,43.4z M160.5,43.4c-6.6,0-11.9,5.3-11.9,11.9s5.3,11.9,11.9,11.9c6.6,0,11.9-5.3,11.9-11.9
	S167.1,43.4,160.5,43.4z"/>
</svg>
