<?xml version="1.0" encoding="utf-8"?>
<!-- Generator: Adobe Illustrator 17.1.0, SVG Export Plug-In . SVG Version: 6.00 Build 0)  -->
<!DOCTYPE svg PUBLIC "-//W3C//DTD SVG 1.1//EN" "http://www.w3.org/Graphics/SVG/1.1/DTD/svg11.dtd">
<svg version="1.1" id="Layer_1" xmlns="http://www.w3.org/2000/svg" xmlns:xlink="http://www.w3.org/1999/xlink" x="0px" y="0px"
	 viewBox="0 0 198.5 244.7" enable-background="new 0 0 198.5 244.7" xml:space="preserve">
<path fill="#393939" d="M181.6,214.3c-10.2,14.9-20.7,29.7-37.3,30.1c-16.3,0.3-21.6-9.7-40.2-9.7c-18.7,0-24.5,9.4-39.9,10
	c-16,0.6-28.2-16.1-38.5-31C4.7,183.4-11.3,127.9,10.2,90.4c10.6-18.6,29.7-30.4,50.4-30.7c15.7-0.3,30.6,10.6,40.2,10.6
	c9.6,0,27.7-13.1,46.7-11.2c7.9,0.3,30.2,3.2,44.6,24.2C191,84.2,165.5,99,165.8,130c0.3,37,32.3,49.3,32.7,49.5
	C198.2,180.4,193.4,197.1,181.6,214.3z M111.9,18.5c8.8-10.3,23.6-18,35.9-18.5c1.6,14.4-4.2,28.7-12.7,39.1
	c-8.5,10.3-22.5,18.4-36.2,17.3C97.1,42.4,104,27.7,111.9,18.5z"/>
</svg>
