<?xml version="1.0" encoding="utf-8"?>
<!-- Generator: Adobe Illustrator 17.1.0, SVG Export Plug-In . SVG Version: 6.00 Build 0)  -->
<!DOCTYPE svg PUBLIC "-//W3C//DTD SVG 1.1//EN" "http://www.w3.org/Graphics/SVG/1.1/DTD/svg11.dtd">
<svg version="1.1" id="Layer_1" xmlns="http://www.w3.org/2000/svg" xmlns:xlink="http://www.w3.org/1999/xlink" x="0px" y="0px"
	 viewBox="0 344.3 612 103.4" enable-background="new 0 344.3 612 103.4" xml:space="preserve">
<g>
	<path fill="#636466" d="M176.2,393.1c-6.4,0-11.4-1.3-15.6-5.6l5.4-5.4c2.7,2.7,6.3,3.6,10.3,3.6c4.9,0,7.5-1.8,7.5-5.3
		c0-1.5-0.4-2.8-1.3-3.6c-0.8-0.8-1.8-1.2-3.8-1.5l-5.1-0.7c-3.7-0.5-6.3-1.6-8.3-3.6c-2-2-3.1-4.8-3.1-8.4
		c0-7.6,5.6-12.9,14.9-12.9c5.9,0,10.1,1.4,13.8,5l-5.3,5.2c-2.7-2.5-5.9-3-8.8-3c-4.4,0-6.6,2.4-6.6,5.4c0,1.1,0.4,2.2,1.2,3.1
		c0.8,0.8,2.2,1.4,4,1.6l5,0.7c3.9,0.5,6.3,1.6,8.2,3.3c2.2,2.1,3.3,5.3,3.3,9.1C192,388.6,185.2,393.1,176.2,393.1z"/>
	<path fill="#636466" d="M211.9,392.8v-42.6h28v7.4h-19.8v10H237v7.4h-16.8v10.4h19.8v7.4h-28V392.8z"/>
	<path fill="#636466" d="M286.7,394.6l-3.8-3.8c-2.3,1.5-5.3,2.3-8.7,2.3c-4.9,0-8.6-1.6-11.5-4.7c-4.3-4.3-4.2-9.7-4.2-17
		s-0.1-12.6,4.2-17c3-3,6.7-4.7,11.5-4.7c4.9,0,8.5,1.6,11.5,4.7c4.3,4.3,4.3,9.7,4.3,17c0,6.4,0.1,11.1-2.7,15.1l3.7,3.7
		L286.7,394.6z M279.7,359.5c-1.2-1.3-3.1-2.2-5.3-2.2s-4.2,0.9-5.4,2.2c-1.6,1.8-2,3.8-2,11.9s0.4,10.2,2,11.9
		c1.2,1.3,3.2,2.2,5.4,2.2c1,0,1.9-0.2,2.8-0.8l-3.7-3.7l4.4-4.4l3.2,3.2c0.6-1.8,0.8-4.3,0.8-8.7
		C281.8,363.3,281.3,361.3,279.7,359.5z"/>
	<path fill="#636466" d="M333.1,392.8l-8.4-17h-6v17h-8.4v-42.6h16.8c8.7,0,13.9,5.9,13.9,13c0,6-3.7,9.7-7.7,11.2l9.5,18.3H333.1z
		 M326.7,357.7h-7.8v11.2h7.8c3.7,0,6-2.3,6-5.6C332.7,359.9,330.4,357.7,326.7,357.7z"/>
	<path fill="#636466" d="M173.2,441.8c-5,0-7.5-3.6-7.5-8v-18H162v-3.3h3.7v-9.2h4.3v9.2h6.3v3.3h-6.3v17.9c0,2.7,1.2,4.3,4,4.3h2.2
		v3.7h-3V441.8z"/>
	<path fill="#636466" d="M203.7,441.8v-18.1c0-5.1-2.8-7.7-7.1-7.7c-4.4,0-7.3,2.7-7.3,7.7v18.2h-4.3v-42.7h4.3v16.4
		c2.1-2.4,5-3.6,8.3-3.6c6.6,0,10.6,4.3,10.6,10.9v19h-4.4V441.8z"/>
	<path fill="#636466" d="M221.2,428.2c0,6.4,3.1,10.2,8.7,10.2c3.4,0,5.4-1,7.7-3.4l3,2.5c-3,3-5.7,4.6-10.8,4.6
		c-7.7,0-12.8-4.7-12.8-15.1c0-9.5,4.6-15.1,12.1-15.1c7.6,0,12.1,5.5,12.1,14.3v1.9C241.2,428.2,221.2,428.2,221.2,428.2z
		 M235.9,420.1c-1.1-2.7-3.8-4.4-6.9-4.4s-5.7,1.7-6.9,4.4c-0.6,1.6-0.8,2.5-0.9,4.9h15.6C236.6,422.6,236.5,421.7,235.9,420.1z"/>
	<path fill="#636466" d="M302.9,441.8v-18.1c0-5.2-2.9-7.8-7.2-7.8c-4.3,0-7.3,2.7-7.3,7.3v18.7h-4.3v-18.1c0-5.2-2.9-7.8-7.2-7.8
		s-7.3,2.7-7.3,7.8v18.1h-4.3v-29.5h4.3v3.3c2.1-2.3,5-3.6,8.4-3.6c4.1,0,7.2,1.6,9.1,4.9c2.2-3.3,5.6-4.9,9.7-4.9
		c3.2,0,5.8,1,7.6,2.8c2.1,2,3.2,4.8,3.2,8.2v18.9C307.4,441.8,302.9,441.8,302.9,441.8z"/>
	<path fill="#636466" d="M336.6,438.8c-2,2-4.9,3.4-8.5,3.4c-3.6,0-6.4-1.3-8.5-3.4c-3-3.1-3.6-7.1-3.6-11.7s0.6-8.7,3.6-11.7
		c2-2,4.9-3.4,8.5-3.4c3.6,0,6.4,1.3,8.5,3.4c3,3.1,3.6,7.1,3.6,11.7C340.2,431.6,339.6,435.8,336.6,438.8z M333.5,418
		c-1.3-1.3-3.3-2.1-5.4-2.1c-2.1,0-4,0.8-5.3,2.1c-2.1,2.1-2.3,5.8-2.3,9.1c0,3.3,0.2,6.9,2.3,9.1c1.3,1.4,3.3,2.1,5.3,2.1
		c2.1,0,4-0.8,5.4-2.1c2.1-2.1,2.3-5.8,2.3-9.1C335.9,423.7,335.8,420.2,333.5,418z"/>
	<path fill="#636466" d="M369.2,439.6c-1.5,1.5-4.2,2.5-7.1,2.5c-3.3,0-5.9-0.8-8.4-3.9v3.6h-4.3v-42.7h4.3v16.6
		c2.3-3.1,5.1-3.8,8.4-3.8c3,0,5.6,1,7.1,2.5c3,3,3.6,7.8,3.6,12.5C372.9,431.7,372.3,436.6,369.2,439.6z M361.1,415.8
		c-6.4,0-7.4,5.5-7.4,11.2s1,11.2,7.4,11.2c6.4,0,7.3-5.5,7.3-11.2S367.6,415.8,361.1,415.8z"/>
	<path fill="#636466" d="M381.8,404v-4.9h4.9v4.9H381.8z M382,441.8v-29.5h4.3v29.5H382z"/>
	<path fill="#636466" d="M404.6,441.8c-5.1,0-7.4-3.4-7.4-7.8v-34.8h4.3v34.6c0,2.9,0.9,4.3,4,4.3h2.3v3.7h-3.2V441.8z"/>
	<path fill="#636466" d="M416.2,428.2c0,6.4,3.1,10.2,8.7,10.2c3.4,0,5.4-1,7.7-3.4l3,2.5c-3,3-5.7,4.6-10.8,4.6
		c-7.8,0-12.9-4.7-12.9-15.1c0-9.5,4.6-15.1,12.1-15.1c7.6,0,12.1,5.5,12.1,14.3v1.9C436.1,428.2,416.2,428.2,416.2,428.2z
		 M430.9,420.1c-1.1-2.7-3.8-4.4-6.9-4.4c-3.2,0-5.7,1.7-6.9,4.4c-0.6,1.6-0.8,2.5-0.9,4.9h15.6
		C431.6,422.6,431.5,421.7,430.9,420.1z"/>
	<path fill="#636466" d="M488.2,441.8h-4l-7.7-22.8l-7.6,22.8h-4l-9.4-29.5h4.7l6.7,23.6l7.7-23.6h3.7L486,436l6.7-23.6h4.7
		L488.2,441.8z"/>
	<path fill="#636466" d="M520.2,441.8v-2.9c-2.3,2.4-4.6,3.2-8.5,3.2c-4.1,0-6.4-0.8-8.4-2.7c-1.4-1.4-2.2-3.7-2.2-6
		c0-5.1,3.6-8.5,10.2-8.5h8.9v-2.9c0-4.3-2.1-6.4-7.5-6.4c-3.8,0-5.7,0.9-7.4,3.4l-3-2.7c2.7-3.4,5.6-4.4,10.4-4.4
		c8,0,11.8,3.4,11.8,9.8v20H520.2L520.2,441.8z M520.2,428.2h-8.3c-4.4,0-6.6,1.8-6.6,5.2c0,3.4,2.1,5,6.7,5c2.5,0,4.7-0.2,6.6-1.9
		c1-0.9,1.5-2.7,1.5-5.1V428.2z"/>
	<path fill="#636466" d="M542.3,441.8c-5.1,0-7.4-3.4-7.4-7.8v-34.8h4.3v34.6c0,2.9,0.9,4.3,4,4.3h2.3v3.7h-3.2V441.8z"/>
	<path fill="#636466" d="M560,441.8c-5.1,0-7.4-3.4-7.4-7.8v-34.8h4.3v34.6c0,2.9,0.9,4.3,4,4.3h2.3v3.7H560V441.8z"/>
	<path fill="#636466" d="M571.6,428.2c0,6.4,3.1,10.2,8.7,10.2c3.4,0,5.4-1,7.7-3.4l3,2.5c-3,3-5.7,4.6-10.8,4.6
		c-7.7,0-12.8-4.7-12.8-15.1c0-9.5,4.6-15.1,12.1-15.1c7.6,0,12.1,5.5,12.1,14.3v1.9C591.6,428.2,571.6,428.2,571.6,428.2z
		 M586.3,420.1c-1.1-2.7-3.8-4.4-6.9-4.4s-5.7,1.7-6.9,4.4c-0.6,1.6-0.8,2.5-0.9,4.9h15.6C587.1,422.6,586.9,421.7,586.3,420.1z"/>
	<path fill="#636466" d="M608.9,441.8c-5,0-7.5-3.6-7.5-8v-18h-3.7v-3.3h3.7v-9.2h4.3v9.2h6.3v3.3h-6.3v17.9c0,2.7,1.2,4.3,4,4.3
		h2.2v3.7h-3V441.8z"/>
</g>
<g>
	<rect x="130.5" y="344.5" fill="#636466" width="2.9" height="103.2"/>
</g>
<path fill="#00B19D" d="M91.8,344.3c-3.3,0-5.8,1.2-7.5,2.9c-1.2,1.2-2.5,2.2-4.1,3.5c-1.3,1.1-4.5,2.8-8.6,2.8
	c-4,0-7.1-1.6-8.6-2.8c-1.2-1-2.2-1.8-3.3-2.8c-0.8-0.9-1.8-1.7-3.1-2.2c-0.1-0.1-0.2-0.1-0.3-0.2c-0.1-0.1-0.3-0.2-0.4-0.2
	c-1.2-0.6-2.7-0.9-4.3-0.9c-0.1,0-0.1,0-0.2,0l0,0c-0.1,0-0.1,0-0.2,0c-1.6,0-3.1,0.3-4.3,0.9c-0.2,0.1-0.3,0.2-0.5,0.2
	c-0.1,0.1-0.2,0.1-0.3,0.2c-1.1,0.6-2.1,1.3-3.1,2.2c-1,0.9-2,1.7-3.3,2.8c-1.3,1.1-4.6,2.8-8.6,2.8s-7.1-1.6-8.6-2.8
	c-1.2-1-2.2-1.8-3.4-2.8c-0.6-0.7-1.4-1.3-2.1-1.8c0,0-0.1,0-0.1-0.1c-0.2-0.1-0.4-0.3-0.6-0.4c-1.3-0.7-3.1-1.2-5.1-1.2h-0.1l0,0
	c-0.4,0-0.7,0-1.1,0.1c-2.3,0.2-4.4,1-6,2.3l-0.1,0.1c-0.2,0.1-0.4,0.3-0.6,0.5c-0.1,0.1-0.2,0.1-0.3,0.2c-0.1,0.1-0.1,0.2-0.2,0.3
	c-0.2,0.2-0.4,0.4-0.5,0.6l-0.1,0.1c-1.3,1.6-2.1,3.7-2.3,5.9C0,354.9,0,355.2,0,355.6l0,0v0.1c0,2,0.5,3.8,1.3,5.2
	c0.1,0.2,0.2,0.4,0.4,0.6c0,0,0,0.1,0.1,0.1c0.5,0.8,1.1,1.5,1.8,2.1c0.9,1,1.8,2.1,2.8,3.4c1.1,1.3,2.8,4.5,2.8,8.6
	c0,4-1.6,7.1-2.8,8.6c-1,1.2-1.8,2.2-2.8,3.4c-0.7,0.6-1.3,1.4-1.8,2.2c0,0,0,0.1-0.1,0.1c-0.1,0.2-0.3,0.4-0.4,0.6
	C0.5,392,0,393.8,0,395.8c0,0.1,0,0.1,0,0.2l0,0v0.1c0,0.3,0,0.7,0.1,1c0.2,2.2,1,4.3,2.3,5.9l0.1,0.1c0.1,0.2,0.3,0.3,0.5,0.5
	c0.1,0.1,0.2,0.2,0.3,0.3c0.1,0.1,0.2,0.2,0.3,0.3c0.2,0.2,0.3,0.3,0.5,0.5l0.1,0.1c1.6,1.3,3.7,2.1,5.9,2.4c0.4,0,0.7,0.1,1.1,0.1
	l0,0h0.1c2,0,3.8-0.5,5.2-1.3c0.2-0.1,0.4-0.3,0.7-0.4c0,0,0,0,0.1,0c0.8-0.5,1.5-1.1,2.1-1.8c1-0.9,2.1-1.8,3.4-2.8
	c1.3-1.1,4.6-2.8,8.6-2.8s7.1,1.6,8.6,2.8c1.2,1,2.2,1.8,3.3,2.8c0.8,0.9,1.8,1.7,3.1,2.2c0.1,0.1,0.2,0.1,0.3,0.1
	c0.2,0.1,0.4,0.2,0.5,0.2c1.2,0.5,2.7,0.8,4.3,0.8c0.1,0,0.1,0,0.2,0l0,0c0.1,0,0.1,0,0.2,0c1.6,0,3.1-0.3,4.3-0.8
	c0.2-0.1,0.4-0.2,0.5-0.2c0.1,0,0.2-0.1,0.3-0.1c1.1-0.6,2.1-1.3,3.1-2.2c1-0.9,2-1.8,3.3-2.8c1.3-1.1,4.5-2.8,8.6-2.8
	c4,0,7.1,1.6,8.6,2.8c1.3,1,2.4,2,3.6,3c1,1.1,1.9,2.2,3.1,3.6c1.1,1.3,2.8,4.6,2.8,8.6c0,4-1.6,7.1-2.8,8.6c-1,1.3-2,2.4-3,3.6
	c-1.1,1-2.2,1.9-3.6,3.1s-4.5,2.8-8.6,2.8c-4,0-7.1-1.6-8.6-2.8c-1.2-1-2.2-1.8-3.3-2.8c-0.8-0.9-1.8-1.7-3-2.2
	c-0.1-0.1-0.2-0.1-0.3-0.2c-0.2-0.1-0.3-0.2-0.5-0.2c-1.2-0.5-2.7-0.8-4.3-0.9c-0.1,0-0.1,0-0.2,0l0,0c-0.1,0-0.1,0-0.2,0
	c-1.6,0-3.1,0.3-4.3,0.9c-0.2,0.1-0.3,0.2-0.5,0.2c-0.1,0.1-0.2,0.1-0.3,0.2c-1.1,0.6-2.1,1.3-3,2.2c-1,0.9-2,1.8-3.3,2.8
	c-1.3,1.1-4.6,2.8-8.6,2.8s-7.1-1.6-8.6-2.8c-1.5-1.2-2.8-2.3-4.1-3.5c-1.7-1.6-4.2-2.9-7.5-2.9C4.9,424.7,0,429.9,0,436.2
	c0,6.2,4.9,11.3,11.3,11.3c3.3,0,5.8-1.2,7.5-2.9c1.2-1.2,2.5-2.2,4.1-3.5c1.3-1.1,4.6-2.8,8.6-2.8s7.1,1.6,8.6,2.8
	c1.2,1,2.2,1.8,3.3,2.8c0.8,0.9,1.8,1.7,3.1,2.2c0.1,0,0.2,0.1,0.3,0.1c0.2,0.1,0.4,0.2,0.5,0.2c1.2,0.5,2.7,0.8,4.3,0.9
	c0.1,0,0.1,0,0.2,0l0,0c0.1,0,0.1,0,0.2,0c1.6,0,3.1-0.3,4.3-0.9c0.2-0.1,0.4-0.2,0.5-0.2c0.1-0.1,0.2-0.1,0.3-0.1
	c1.1-0.6,2.1-1.3,3.1-2.2c1-0.9,2-1.8,3.3-2.8c1.3-1.1,4.5-2.8,8.6-2.8c4,0,7.1,1.6,8.6,2.8c1.2,1,2.2,1.8,3.4,2.8
	c0.6,0.7,1.4,1.3,2.1,1.8c0,0,0,0,0.1,0c0.2,0.1,0.4,0.3,0.7,0.4c1.4,0.8,3.2,1.3,5.2,1.3H92l0,0c0.4,0,0.7,0,1.1-0.1
	c2.2-0.2,4.3-1.1,5.9-2.4l0.1-0.1c0.2-0.1,0.3-0.3,0.5-0.5c0.1-0.1,0.2-0.2,0.3-0.3c0.1-0.1,0.2-0.2,0.3-0.3
	c0.2-0.2,0.3-0.3,0.5-0.5l0.1-0.1c1.3-1.6,2.1-3.7,2.4-5.9c0-0.3,0-0.7,0.1-1v-0.1l0,0c0-0.1,0-0.1,0-0.2c0-2-0.5-3.8-1.3-5.2
	c-0.1-0.2-0.3-0.4-0.4-0.7c0,0,0,0,0-0.1c-0.5-0.8-1.1-1.5-1.8-2.2c-0.9-1-1.8-2.1-2.8-3.4c-1.1-1.3-2.8-4.6-2.8-8.6
	c0-4,1.6-7.1,2.8-8.6c1-1.2,1.8-2.2,2.8-3.4c0.7-0.6,1.3-1.4,1.8-2.1c0,0,0-0.1,0.1-0.1c0.1-0.2,0.2-0.4,0.4-0.6
	c0.8-1.4,1.3-3.2,1.3-5.3v-0.1l0,0c0-0.4,0-0.8-0.1-1.1c-0.2-2.2-1.1-4.3-2.4-5.9l-0.1-0.1c-0.1-0.2-0.3-0.3-0.5-0.5
	c-0.1-0.1-0.2-0.2-0.3-0.3c-0.1-0.1-0.2-0.2-0.3-0.3c-0.2-0.2-0.3-0.3-0.5-0.5l-0.1-0.1c-1.6-1.3-3.7-2.1-5.9-2.4
	c-0.4,0-0.7-0.1-1.1-0.1l0,0H92c-2,0-3.8,0.5-5.2,1.3c-0.2,0.1-0.4,0.2-0.6,0.4c0,0-0.1,0-0.1,0.1c-0.8,0.5-1.5,1.1-2.1,1.8
	c-1,0.9-2.1,1.8-3.4,2.8c-1.3,1.1-4.5,2.8-8.6,2.8c-4,0-7.1-1.6-8.6-2.8c-1.2-1-2.2-1.8-3.3-2.8c-0.8-0.9-1.8-1.7-3.1-2.2
	c-0.1-0.1-0.2-0.1-0.3-0.2c-0.2-0.1-0.3-0.2-0.5-0.2c-1.2-0.5-2.7-0.8-4.3-0.8c-0.1,0-0.1,0-0.2,0l0,0c-0.1,0-0.1,0-0.2,0
	c-1.6,0-3.1,0.3-4.3,0.8c-0.2,0.1-0.3,0.2-0.5,0.2c-0.1,0.1-0.2,0.1-0.3,0.2c-1.1,0.6-2.1,1.3-3.1,2.2c-1,0.9-2,1.8-3.3,2.8
	c-1.3,1.1-4.6,2.8-8.6,2.8s-7.1-1.6-8.6-2.8c-1.3-1-2.4-2-3.6-3c-1-1.1-1.9-2.2-3-3.6c-1.1-1.3-2.8-4.6-2.8-8.6c0-4,1.6-7.1,2.8-8.6
	c1-1.3,2-2.4,3-3.6c1.1-1,2.2-1.9,3.6-3c1.3-1.1,4.6-2.8,8.6-2.8s7.1,1.6,8.6,2.8c1.2,1,2.2,1.8,3.3,2.8c0.8,0.9,1.8,1.7,3.1,2.2
	c0.1,0.1,0.2,0.1,0.3,0.2c0.2,0.1,0.3,0.2,0.5,0.2c1.2,0.5,2.7,0.8,4.3,0.9c0.1,0,0.1,0,0.2,0l0,0c0.1,0,0.1,0,0.2,0
	c1.6,0,3.1-0.3,4.3-0.9c0.2-0.1,0.4-0.2,0.5-0.2c0.1-0.1,0.2-0.1,0.3-0.2c1.1-0.6,2.1-1.3,3.1-2.2c1-0.9,2-1.8,3.3-2.8
	c1.3-1.1,4.5-2.8,8.6-2.8c4,0,7.1,1.6,8.6,2.8c1.5,1.2,2.8,2.3,4.1,3.5c1.7,1.6,4.2,2.9,7.5,2.9c6.4,0,11.3-5.1,11.3-11.4
	C103.2,349.4,98.3,344.3,91.8,344.3"/>
</svg>
